<svg width="1020" height="200" viewBox="0 0 1020 200" fill="none" xmlns="http://www.w3.org/2000/svg">
<rect x="30" y="36" width="134" height="124" fill="white"/>
<path d="M111.168 116.901H83.168V109.901H111.168V116.901Z" fill="#FF4500"/>
<path d="M111.168 86.208H83.168V79.208H111.168V86.208Z" fill="#FF4500"/>
<path fill-rule="evenodd" clip-rule="evenodd" d="M200 200H0V0H200V200ZM55.4453 147.815H128.678L145.259 131.234V111.891L131.441 98.0723L142.495 87.0186V69.0557L125.914 52.4756H55.4453V147.815Z" fill="#FF4500"/>
<path d="M254 146.518V55.2299H285.406C298.478 55.2299 308.947 65.6675 308.947 78.7007V83.9195C308.947 89.9115 306.731 95.5168 302.937 99.5759C308.171 103.884 311.578 110.4 311.578 117.828V123.047C311.578 136.08 301.109 146.518 288.037 146.518H254ZM267.072 133.484H288.009C293.908 133.484 298.478 128.928 298.478 123.047V117.828C298.478 111.946 293.908 107.39 288.009 107.39H267.072V133.484ZM267.072 94.3571H285.378C291.277 94.3571 295.847 89.801 295.847 83.9195V78.7007C295.847 72.8192 291.277 68.2631 285.378 68.2631H267.072V94.3571Z" fill="black"/>
<path d="M325.111 146.52V80.0842H338.122V90.1227L352.842 80.0842H356.619C368.61 80.0842 378.506 90.5088 378.506 103.526V108.738H365.495V103.526C365.495 97.7894 361.856 93.1011 356.646 93.1011H355.461L338.15 104.684V146.492H325.139L325.111 146.52Z" fill="black"/>
<path d="M410.324 146.52C397.302 146.52 386.873 136.233 386.873 123.189V103.526C386.873 90.5088 397.302 80.0842 410.324 80.0842H420.753C433.775 80.0842 444.204 90.5088 444.204 103.526V123.189C444.204 136.206 433.775 146.52 420.753 146.52H410.324ZM399.895 123.216C399.895 129.091 404.447 133.365 410.324 133.503H420.753C426.63 133.503 431.182 129.063 431.182 123.216V103.553C431.182 97.6791 426.63 93.1287 420.753 93.1287H410.324C404.475 93.1287 399.895 97.6791 399.895 103.553V123.216Z" fill="black"/>
<path d="M467.903 146.52L455.524 110.034V80.0842H468.537V106.146L475.044 126.857L486.128 91.8049H496.797L507.853 126.857L514.36 106.146V80.0842H527.373V110.034L514.994 146.52H503.911L491.421 115.384L478.932 146.52H467.848H467.903Z" fill="black"/>
<path d="M559.728 146.52C547.089 146.52 537.707 138.302 537.707 127.243V124.651H550.732V127.243C550.732 131.407 554.126 134.413 559.728 134.413H571.594C577.72 134.413 580.728 131.931 580.728 128.153C580.728 113.426 538.618 122.941 538.618 97.6791C538.618 87.1166 547.089 80.0842 559.48 80.0842H570.683C582.411 80.0842 591.545 88.5507 591.545 99.4992V100.685H578.52V99.4992C578.52 95.3349 575.264 92.191 570.711 92.191H559.507C554.043 92.191 551.698 94.3973 551.698 97.6515C551.698 108.214 593.808 101.568 593.808 128.125C593.808 139.074 584.812 146.492 571.649 146.492H559.783L559.728 146.52Z" fill="black"/>
<path d="M627.593 146.52C614.681 146.52 604.142 135.847 604.142 122.941V103.526C604.142 90.5088 614.709 80.0842 627.593 80.0842H638.022C650.658 80.0842 660.839 89.8469 661.473 102.229V116.294H617.164V122.941C617.164 128.677 621.854 133.365 627.593 133.365H638.022C643.761 133.365 648.451 128.677 648.451 122.941V121.644H661.473V122.941C661.473 135.847 651.044 146.52 638.022 146.52H627.593ZM617.164 105.897H648.451V103.553C648.451 97.6791 643.899 93.1287 638.022 93.1287H627.593C621.717 93.1287 617.164 97.817 617.164 103.553V105.897Z" fill="black"/>
<path d="M675.745 146.52V80.0842H688.756V90.1227L703.476 80.0842H707.253C719.244 80.0842 729.14 90.5088 729.14 103.526V108.738H716.129V103.526C716.129 97.7894 712.49 93.1011 707.28 93.1011H706.122L688.811 104.684V146.492H675.8L675.745 146.52Z" fill="black"/>
<path d="M763.558 146.518L752.743 139.208V146.518H739.72V54H752.743V87.3495L763.558 80.0397H773.6C786.512 80.0397 797.052 90.4665 797.052 103.486V123.044C797.052 135.953 786.485 146.49 773.6 146.49H763.558V146.518ZM752.743 123.457L767.586 133.498H773.573C779.312 133.498 784.002 128.809 784.002 123.071V103.514C784.002 97.7764 779.312 93.0871 773.573 93.0871H767.586L752.743 103.128V123.457Z" fill="black"/>
<path d="M832.416 146.52C819.448 146.52 808.864 135.958 808.864 123.079V103.526C808.864 90.5088 819.476 80.0842 832.416 80.0842H842.501L853.363 87.3924V80.0842H866.441V146.52H853.363V139.212L842.501 146.52H832.416ZM821.942 123.079C821.942 128.815 826.652 133.503 832.416 133.503H838.428L853.335 123.465V103.14L838.428 93.1011H832.416C826.652 93.1011 821.942 97.7894 821.942 103.526V123.079Z" fill="black"/>
<path d="M901.504 146.52C888.865 146.52 879.483 138.302 879.483 127.243V124.651H892.508V127.243C892.508 131.407 895.902 134.413 901.504 134.413H913.37C919.496 134.413 922.504 131.931 922.504 128.153C922.504 113.426 880.394 122.941 880.394 97.6791C880.394 87.1166 888.865 80.0842 901.256 80.0842H912.459C924.187 80.0842 933.321 88.5507 933.321 99.4992V100.685H920.296V99.4992C920.296 95.3349 917.04 92.191 912.487 92.191H901.283C895.819 92.191 893.474 94.3973 893.474 97.6515C893.474 108.214 935.584 101.568 935.584 128.125C935.584 139.074 926.588 146.492 913.425 146.492H901.559L901.504 146.52Z" fill="black"/>
<path d="M969.369 146.52C956.457 146.52 945.918 135.847 945.918 122.941V103.526C945.918 90.5088 956.485 80.0842 969.369 80.0842H979.798C992.434 80.0842 1002.61 89.8469 1003.25 102.229V116.294H958.94V122.941C958.94 128.677 963.63 133.365 969.369 133.365H979.798C985.537 133.365 990.227 128.677 990.227 122.941V121.644H1003.25V122.941C1003.25 135.847 992.82 146.52 979.798 146.52H969.369ZM958.94 105.897H990.227V103.553C990.227 97.6791 985.675 93.1287 979.798 93.1287H969.369C963.492 93.1287 958.94 97.817 958.94 103.553V105.897Z" fill="black"/>
</svg>
